<?xml version="1.0" encoding="utf-8"?>
<!-- Generator: Adobe Illustrator 21.0.0, SVG Export Plug-In . SVG Version: 6.00 Build 0)  -->
<svg version="1.1" id="Layer_1" xmlns="http://www.w3.org/2000/svg" xmlns:xlink="http://www.w3.org/1999/xlink" x="0px" y="0px"
	 viewBox="0 0 1000 1000" style="enable-background:new 0 0 1000 1000;" xml:space="preserve">
<style type="text/css">
	.st0{fill:#273B8F;}
	.st1{font-family:'B2SIGNPachautidN';}
	.st2{font-size:323.9954px;}
	.st3{font-size:125.6111px;}
</style>
<g>
	<text transform="matrix(1 0 0 1 28 566.4814)" class="st0 st1 st2">CHANACHON</text>
	<g>
		<path class="st0" d="M295.3,327.5c-0.2-0.4-0.2-0.9,0.1-1.4l4.1-7.3l13.9,0.2l0.5-2.2c-1.4-0.1-2.6-0.7-3-1.9
			c-0.6-1.5,0.2-3.3,1.9-3.9c1.7-0.5,3.5,0.3,4,1.8c0.3,0.6,0.4,1.2,0.4,1.8c0,1.4-0.1,2.9-0.5,4.2l2.3,0.1l7.7,18.8
			c3.1,7.6-7.3,14.7-7.3,14.7s-12.3,2.3-15.5-5.4l-4.5-11c6.2-3.8,9.9-8.2,11.5-11.2l-13.5-0.2l-0.3,0.4c0.6,0.1,1.1,0.5,1.4,1
			c0.4,0.9-0.1,1.9-0.9,2.3C296.7,328.8,295.7,328.4,295.3,327.5 M310.6,344.4c2,4.7,7.4,4.5,7.4,4.5s4.4-3.6,2.3-8.5l-6.2-14.9
			c-1.9,3.4-4.5,6.6-7.5,9.3L310.6,344.4z"/>
		<path class="st0" d="M330.6,311.2l3.9-5.7c0.4-0.8,1.4-1.1,2.2-0.8l4.3,1.7l8.9,28.6l0.8,0.3c2.7-4.6,6.4-8.1,10.9-10.9
			c0.4-0.2,0.6-0.7,0.4-1.2l-7.1-22.9c-0.2-0.6,0.1-1.1,0.7-1.3l4.7-1.5c0.6-0.2,1.1,0.1,1.3,0.7l10.2,33.1l0.3,0.1
			c0.2-0.6,0.7-1.1,1.5-1.2c0.7-0.1,1.4,0.2,1.7,0.8c0.1,0.1,0.2,0.2,0.2,0.4c0.3,0.9-0.2,1.9-1.2,2.2c-0.5,0.2-0.9,0-1.4-0.1
			l-8.6-2.7l-0.8-2.5c-0.2-0.7-1-1-1.6-0.6c-4.6,3.3-7.9,7.2-10.4,12.4c-0.2,0.4-0.8,0.6-1.2,0.5l-6.4-2c-0.3-0.2-0.6-0.4-0.7-0.7
			l-8.8-28.6l-0.7-0.1l-1.3,1.2c0.6,0.2,1.1,0.7,1.2,1.5c0.1,0.7-0.2,1.4-0.8,1.8c-1,0.5-2.3,0-2.6-1
			C330.3,312.2,330.4,311.6,330.6,311.2"/>
		<path class="st0" d="M379.5,299c-0.1-0.4,0-1,0.3-1.4l5.4-6.5l13.6,2.7l0.9-2.1c-1.4-0.3-2.4-1.2-2.6-2.4
			c-0.3-1.6,0.8-3.2,2.6-3.5c1.7-0.2,3.4,0.9,3.6,2.5c0.1,0.7,0.2,1.3,0,1.9c-0.2,1.4-0.6,2.8-1.3,4.1l2.2,0.5l4.2,19.9
			c1.7,8.1-9.8,13.2-9.8,13.2s-12.5,0-14.2-8.1l-2.5-11.6c6.7-2.6,11.2-6.3,13.4-9l-13.2-2.6l-0.4,0.3c0.6,0.2,1,0.7,1.2,1.3
			c0.2,0.9-0.4,1.9-1.3,2.1C380.7,300.5,379.7,299.9,379.5,299 M391.4,318.4c1.1,5,6.4,5.7,6.4,5.7s4.9-2.7,3.8-7.9l-3.3-15.8
			c-2.5,3-5.6,5.7-9.1,7.8L391.4,318.4z"/>
		<path class="st0" d="M417.2,289.4l4.9-4.9c0.5-0.7,1.6-0.8,2.3-0.4l4,2.4l3.5,29.8l0.7,0.4c3.5-4,7.8-6.8,12.7-8.8
			c0.4-0.1,0.7-0.6,0.7-1.1l-2.8-23.8c-0.1-0.6,0.3-1.1,0.9-1.2l4.9-0.6c0.6-0.1,1.1,0.3,1.2,0.9l4,34.4l0.3,0.1
			c0.3-0.6,0.9-1,1.6-0.9c0.7,0,1.4,0.4,1.5,1.1c0.1,0.2,0.1,0.3,0.1,0.4c0.1,0.9-0.6,1.8-1.6,1.9c-0.5,0.1-0.9-0.2-1.4-0.4
			l-7.9-4.2l-0.3-2.6c-0.1-0.7-0.8-1.1-1.5-0.9c-5.1,2.4-9,5.7-12.4,10.3c-0.3,0.4-0.9,0.5-1.3,0.2l-5.9-3.2
			c-0.3-0.2-0.5-0.5-0.5-0.8l-3.5-29.7l-0.6-0.2l-1.5,1c0.6,0.3,1,0.9,0.9,1.6c0,0.7-0.5,1.4-1.1,1.6c-1.1,0.3-2.2-0.4-2.4-1.5
			C416.7,290.3,416.9,289.8,417.2,289.4"/>
		<path class="st0" d="M465.5,284.5l5.3-4.5c0.3-0.3,0.8-0.4,1.2-0.5c0.3,0,0.8,0.2,1.1,0.4l3.7,2.8l0.4,22.1c0,0.3,0.3,0.7,0.7,0.8
			c5.2,1.2,10,3.5,14,7l0.7-0.5l-0.6-31.5c0-0.5,0.4-1.1,0.9-1.1l5-0.1c0.6,0,1.1,0.5,1.1,1l0.6,32.8l-6.5,4.8
			c-0.4-0.4-5.4-5.2-9.7-7.4c-1.6-0.8-3.3-1.4-5-1.8c-0.5-0.2-1.1,0.3-1.1,0.8l0.1,2.9l0.1,0l-7.3,5.3c-0.4,0.3-0.8,0.5-1.4,0.5
			c-1,0-1.9-1-1.7-2.1c0.1-0.7,0.7-1.2,1.4-1.3c0.7-0.2,1.4,0.1,1.8,0.7l0.2-0.1l-0.6-31.7l-0.6-0.3l-1.5,0.8c0.5,0.3,0.9,1,0.7,1.7
			c-0.1,0.7-0.6,1.3-1.3,1.4c-1.1,0.3-2.2-0.6-2.2-1.6C464.9,285.2,465.2,284.8,465.5,284.5"/>
		<path class="st0" d="M511.9,284.6l7.8-5.4l17.6,6l-1.8,27.5c-0.2,2.4-1.8,4.6-4.1,5.5l-3.8,1.5l-6.5-6.4c-0.4-0.4-0.6-0.9-0.5-1.3
			c0.1-1,0.9-1.8,1.9-1.6c1,0.1,1.6,1,1.5,1.8c0,0.6-0.4,1.1-0.9,1.4l1,0.6l2.4-0.9c1.2-0.5,2-1.6,2.1-2.9l1.4-21.4l-14.8-5.3
			l-1.4,0.9c0.5,0.4,0.8,0.9,0.8,1.5c-0.1,0.9-0.9,1.6-1.8,1.6c-1,0-1.8-0.9-1.7-1.9C511.3,285.5,511.5,284.9,511.9,284.6"/>
		<path class="st0" d="M552.8,286.2c0.1-0.9,0.8-1.5,1.6-1.9l3.9-1.3c0.8-0.3,1.7-0.1,2.2,0.6l4,4.7c0.9,1,1,1.8,0.8,2.6
			c-0.1,0.8-1.1,1.3-1.9,1c-0.4-0.2-0.8-0.6-0.8-1.2c-0.1-0.5,0.1-0.9,0.4-1.2c0.6-0.6,0.2-1,0.2-1.1l-0.2-0.2l-3.6,1.4l-0.7,4.6
			c-0.4,2.6,1.6,4.3,3.7,4.6c0.8,0.1,1.6,0.1,2.2-0.2l4.1-1.7c0.3,0,0.5-0.1,0.9,0c0.9,0.1,1.6,1,1.5,2c-0.1,0.9-1,1.6-2,1.5
			c-0.7-0.1-1.3-0.6-1.5-1.4l-1.4,0.7c-3.8,1.4-7.6,3.1-8.1,6.6l-1.1,7.1c-0.5,3.3,6,6.8,6,6.8s7.3-0.9,7.9-4.7l4.3-28.5
			c0.1-0.5,0.5-0.9,1-0.8l5.2,0.8c0.4,0.1,0.8,0.6,0.7,1.1l-4.3,28.5c-0.7,4.9-15.3,6.8-15.3,6.8s-13.2-6-12.5-11l1.3-8.4l8.4-3.6
			c-4.3-1.4-8.4-5.2-7.8-9.3L552.8,286.2z"/>
		<path class="st0" d="M595.1,274.4c0.2-0.9,1.3-1.6,2.2-1.3c0.9,0.3,1.4,1.2,1.2,2.1c-0.1,0.6-0.6,1-1.1,1.3l0.6,0.8l13.5-0.8
			c2.3,2,3.9,5.3,3.9,8.6c0,0-5.7,2.4-6.8,4.2l-8.5,37.2l0.3,0.3l1.7-0.3c-0.4-0.5-0.6-1.2-0.3-1.9c0.2-0.7,0.9-1.1,1.6-1.1
			c1.2,0,2,1.1,1.7,2.2c-0.1,0.5-0.5,0.9-0.9,1.1l-6.2,3c-0.8,0.4-1.7,0.2-2.3-0.4l-2.9-3.7l7.5-33c3.6-5.2,10.2-8.7,10.2-8.7
			c0.1-0.5-0.2-1.4-0.4-1.7l-9.2,0.5l-5.5-6.9C595.1,275.3,595,274.8,595.1,274.4"/>
		<path class="st0" d="M621.3,300.3L621.3,300.3l6.3-2.6c0.8-0.4,1.8-0.1,2.3,0.6l2.6,3.9l-1.6,5.3c4.6-4.1,11.5-5.4,17.4-3.6
			l4.9,6.4l-9.4,30.5c-0.2,0.6-0.7,1-1.4,0.7l-4.6-1.4c-0.6-0.2-0.9-0.8-0.7-1.4l9.8-31.8l-0.3-0.5c-8-1.9-16,2.5-18.5,10.5l-0.1,0
			l-5.3,17.4c-0.2,0.6-0.8,0.9-1.4,0.7l-4.7-1.5c-0.7-0.2-0.9-0.8-0.7-1.4l9.6-31.3l-0.3-0.4l-1.7,0.2c0.4,0.6,0.5,1.3,0.2,2
			c-0.4,0.6-1,1-1.7,0.9c-1.2-0.1-1.8-1.2-1.5-2.3C620.5,300.9,620.8,300.5,621.3,300.3"/>
		<path class="st0" d="M668.7,314.7c0.4-0.9,1.2-1.3,2-1.4l4.1-0.3c0.8-0.1,1.7,0.3,2,1.1l2.8,5.6c0.6,1.2,0.6,2,0.2,2.7
			c-0.3,0.7-1.4,1-2.1,0.5c-0.3-0.3-0.6-0.8-0.5-1.3c0-0.5,0.4-0.9,0.7-1c0.7-0.4,0.5-0.9,0.4-1l-0.2-0.3l-3.8,0.5l-1.8,4.3
			c-1,2.4,0.5,4.6,2.5,5.4c0.7,0.3,1.5,0.4,2.2,0.4l4.4-0.6c0.3,0,0.5,0,0.9,0.2c0.9,0.4,1.3,1.4,0.9,2.3c-0.4,0.9-1.4,1.3-2.3,0.9
			c-0.6-0.3-1.1-0.9-1.1-1.7l-1.5,0.3c-4.1,0.5-8.1,1.1-9.5,4.4l-2.8,6.7c-1.3,3,4.2,8,4.2,8s7.3,0.9,8.8-2.6l11.1-26.6
			c0.2-0.5,0.7-0.7,1.2-0.5l4.8,2c0.4,0.2,0.6,0.7,0.4,1.2l-11.1,26.6c-1.9,4.6-16.5,2.9-16.5,2.9s-11.4-9-9.4-13.7l3.3-7.9l9.1-1.4
			c-3.8-2.4-6.9-7.1-5.3-10.9L668.7,314.7z"/>
	</g>
	<g>
		<text transform="matrix(1 0 0 1 334.9082 686.0459)" class="st0 st1 st3">Muay Thai</text>
	</g>
</g>
</svg>
