<?xml version="1.0" encoding="UTF-8" standalone="no" ?>
<!DOCTYPE svg PUBLIC "-//W3C//DTD SVG 1.1//EN" "http://www.w3.org/Graphics/SVG/1.1/DTD/svg11.dtd">
<svg xmlns="http://www.w3.org/2000/svg" xmlns:xlink="http://www.w3.org/1999/xlink" version="1.1" width="1200" height="400" viewBox="0 0 1200 400" xml:space="preserve">
<desc>Created with Fabric.js 5.2.4</desc>
<defs>
</defs>
<g transform="matrix(Infinity NaN NaN Infinity 0 0)" id="ecfaaf20-8771-442c-83bf-479ec9c7762e"  >
</g>
<g transform="matrix(1 0 0 1 600 200)" id="dc99f576-362e-4bb1-8f63-f9a6b59bed43"  >
<rect style="stroke: none; stroke-width: 1; stroke-dasharray: none; stroke-linecap: butt; stroke-dashoffset: 0; stroke-linejoin: miter; stroke-miterlimit: 4; fill: rgb(255,255,255); fill-rule: nonzero; opacity: 1; visibility: hidden;" vector-effect="non-scaling-stroke"  x="-600" y="-200" rx="0" ry="0" width="1200" height="400" />
</g>
<g transform="matrix(0.46 0 0 0.46 189.35 59.13)"  >
<rect style="stroke: none; stroke-width: 1; stroke-dasharray: none; stroke-linecap: butt; stroke-dashoffset: 0; stroke-linejoin: miter; stroke-miterlimit: 4; fill: rgb(255,255,255); fill-opacity: 0; fill-rule: nonzero; opacity: 1;" vector-effect="non-scaling-stroke"  x="-50" y="-50" rx="0" ry="0" width="100" height="100" />
</g>
<g transform="matrix(0.37 0 0 0.37 1523.15 514.14)"  >
<rect style="stroke: none; stroke-width: 1; stroke-dasharray: none; stroke-linecap: butt; stroke-dashoffset: 0; stroke-linejoin: miter; stroke-miterlimit: 4; fill: rgb(255,255,255); fill-rule: nonzero; opacity: 1; visibility: hidden;" vector-effect="non-scaling-stroke"  x="-600" y="-300" rx="0" ry="0" width="1200" height="600" />
</g>
<g transform="matrix(0.57 0 0 0.57 600 198.94)" style=""  >
		<text xml:space="preserve" font-family="'B2SIGNPachautidN'" font-size="323.9954" font-style="normal" font-weight="normal" style="stroke: none; stroke-width: 1; stroke-dasharray: none; stroke-linecap: butt; stroke-dashoffset: 0; stroke-linejoin: miter; stroke-miterlimit: 4; fill: rgb(39,59,143); fill-rule: nonzero; opacity: 1; white-space: pre;" ><tspan x="-1035.03" y="101.78" >CHANACHON</tspan></text>
</g>
<g transform="matrix(0.7 0 0 0.79 470.36 71.92)"  >
<path style="stroke: none; stroke-width: 1; stroke-dasharray: none; stroke-linecap: butt; stroke-dashoffset: 0; stroke-linejoin: miter; stroke-miterlimit: 4; fill: rgb(39,59,143); fill-rule: nonzero; opacity: 1;" vector-effect="non-scaling-stroke"  transform=" translate(-311.22, -331.79)" d="M 295.3 327.5 C 295.1 327.1 295.1 326.6 295.40000000000003 326.1 L 299.50000000000006 318.8 L 313.40000000000003 319 L 313.90000000000003 316.8 C 312.50000000000006 316.7 311.3 316.1 310.90000000000003 314.90000000000003 C 310.3 313.40000000000003 311.1 311.6 312.8 311.00000000000006 C 314.5 310.50000000000006 316.3 311.30000000000007 316.8 312.80000000000007 C 317.1 313.4000000000001 317.2 314.00000000000006 317.2 314.6000000000001 C 317.2 316.00000000000006 317.09999999999997 317.50000000000006 316.7 318.80000000000007 L 319 318.9000000000001 L 326.7 337.7000000000001 C 329.8 345.3000000000001 319.4 352.4000000000001 319.4 352.4000000000001 C 319.4 352.4000000000001 307.09999999999997 354.7000000000001 303.9 347.0000000000001 L 299.4 336.0000000000001 C 305.59999999999997 332.2000000000001 309.29999999999995 327.8000000000001 310.9 324.8000000000001 L 297.4 324.60000000000014 L 297.09999999999997 325.0000000000001 C 297.7 325.10000000000014 298.2 325.5000000000001 298.49999999999994 326.0000000000001 C 298.8999999999999 326.9000000000001 298.3999999999999 327.9000000000001 297.59999999999997 328.3000000000001 C 296.7 328.8 295.7 328.4 295.3 327.5 M 310.6 344.4 C 312.6 349.09999999999997 318 348.9 318 348.9 C 318 348.9 322.4 345.29999999999995 320.3 340.4 L 314.1 325.5 C 312.20000000000005 328.9 309.6 332.1 306.6 334.8 L 310.6 344.4 z" stroke-linecap="round" />
</g>
<g transform="matrix(0.7 0 0 0.79 499.6 61.93)"  >
<path style="stroke: none; stroke-width: 1; stroke-dasharray: none; stroke-linecap: butt; stroke-dashoffset: 0; stroke-linejoin: miter; stroke-miterlimit: 4; fill: rgb(39,59,143); fill-rule: nonzero; opacity: 1;" vector-effect="non-scaling-stroke"  transform=" translate(-352.89, -319.03)" d="M 330.6 311.2 L 334.5 305.5 C 334.9 304.7 335.9 304.4 336.7 304.7 L 341 306.4 L 349.9 335 L 350.7 335.3 C 353.4 330.7 357.09999999999997 327.2 361.59999999999997 324.40000000000003 C 361.99999999999994 324.20000000000005 362.2 323.70000000000005 361.99999999999994 323.20000000000005 L 354.8999999999999 300.30000000000007 C 354.69999999999993 299.70000000000005 354.99999999999994 299.20000000000005 355.5999999999999 299.00000000000006 L 360.2999999999999 297.50000000000006 C 360.8999999999999 297.30000000000007 361.3999999999999 297.6000000000001 361.5999999999999 298.20000000000005 L 371.7999999999999 331.30000000000007 L 372.0999999999999 331.4000000000001 C 372.2999999999999 330.80000000000007 372.7999999999999 330.30000000000007 373.5999999999999 330.2000000000001 C 374.2999999999999 330.1000000000001 374.9999999999999 330.4000000000001 375.2999999999999 331.0000000000001 C 375.3999999999999 331.10000000000014 375.4999999999999 331.2000000000001 375.4999999999999 331.4000000000001 C 375.7999999999999 332.30000000000007 375.2999999999999 333.30000000000007 374.2999999999999 333.6000000000001 C 373.7999999999999 333.80000000000007 373.3999999999999 333.6000000000001 372.8999999999999 333.50000000000006 L 364.2999999999999 330.80000000000007 L 363.4999999999999 328.30000000000007 C 363.2999999999999 327.6000000000001 362.4999999999999 327.30000000000007 361.89999999999986 327.70000000000005 C 357.29999999999984 331.00000000000006 353.9999999999999 334.90000000000003 351.4999999999999 340.1 C 351.2999999999999 340.5 350.6999999999999 340.70000000000005 350.2999999999999 340.6 L 343.8999999999999 338.6 C 343.5999999999999 338.40000000000003 343.2999999999999 338.20000000000005 343.19999999999993 337.90000000000003 L 334.3999999999999 309.3 L 333.69999999999993 309.2 L 332.3999999999999 310.4 C 332.99999999999994 310.59999999999997 333.49999999999994 311.09999999999997 333.5999999999999 311.9 C 333.69999999999993 312.59999999999997 333.3999999999999 313.29999999999995 332.7999999999999 313.7 C 331.7999999999999 314.2 330.4999999999999 313.7 330.1999999999999 312.7 C 330.3 312.2 330.4 311.6 330.6 311.2" stroke-linecap="round" />
</g>
<g transform="matrix(0.7 0 0 0.79 528.45 52.37)"  >
<path style="stroke: none; stroke-width: 1; stroke-dasharray: none; stroke-linecap: butt; stroke-dashoffset: 0; stroke-linejoin: miter; stroke-miterlimit: 4; fill: rgb(39,59,143); fill-rule: nonzero; opacity: 1;" vector-effect="non-scaling-stroke"  transform=" translate(-394.02, -306.84)" d="M 379.5 299 C 379.4 298.6 379.5 298 379.8 297.6 L 385.2 291.1 L 398.8 293.8 L 399.7 291.7 C 398.3 291.4 397.3 290.5 397.09999999999997 289.3 C 396.79999999999995 287.7 397.9 286.1 399.7 285.8 C 401.4 285.6 403.09999999999997 286.7 403.3 288.3 C 403.40000000000003 289 403.5 289.6 403.3 290.2 C 403.1 291.59999999999997 402.7 293 402 294.3 L 404.2 294.8 L 408.4 314.7 C 410.09999999999997 322.8 398.59999999999997 327.9 398.59999999999997 327.9 C 398.59999999999997 327.9 386.09999999999997 327.9 384.4 319.79999999999995 L 381.9 308.19999999999993 C 388.59999999999997 305.5999999999999 393.09999999999997 301.8999999999999 395.29999999999995 299.19999999999993 L 382.09999999999997 296.5999999999999 L 381.7 296.8999999999999 C 382.3 297.0999999999999 382.7 297.5999999999999 382.9 298.19999999999993 C 383.09999999999997 299.0999999999999 382.5 300.0999999999999 381.59999999999997 300.29999999999995 C 380.7 300.5 379.7 299.9 379.5 299 M 391.4 318.4 C 392.5 323.4 397.79999999999995 324.09999999999997 397.79999999999995 324.09999999999997 C 397.79999999999995 324.09999999999997 402.69999999999993 321.4 401.59999999999997 316.2 L 398.29999999999995 300.4 C 395.79999999999995 303.4 392.69999999999993 306.09999999999997 389.19999999999993 308.2 L 391.4 318.4 z" stroke-linecap="round" />
</g>
<g transform="matrix(0.7 0 0 0.79 558.76 48.15)"  >
<path style="stroke: none; stroke-width: 1; stroke-dasharray: none; stroke-linecap: butt; stroke-dashoffset: 0; stroke-linejoin: miter; stroke-miterlimit: 4; fill: rgb(39,59,143); fill-rule: nonzero; opacity: 1;" vector-effect="non-scaling-stroke"  transform=" translate(-437.2, -301.43)" d="M 417.2 289.4 L 422.09999999999997 284.5 C 422.59999999999997 283.8 423.7 283.7 424.4 284.1 L 428.4 286.5 L 431.9 316.3 L 432.59999999999997 316.7 C 436.09999999999997 312.7 440.4 309.9 445.29999999999995 307.9 C 445.69999999999993 307.79999999999995 445.99999999999994 307.29999999999995 445.99999999999994 306.79999999999995 L 443.19999999999993 282.99999999999994 C 443.0999999999999 282.3999999999999 443.49999999999994 281.8999999999999 444.0999999999999 281.79999999999995 L 448.9999999999999 281.19999999999993 C 449.5999999999999 281.0999999999999 450.0999999999999 281.49999999999994 450.1999999999999 282.0999999999999 L 454.1999999999999 316.4999999999999 L 454.4999999999999 316.5999999999999 C 454.7999999999999 315.9999999999999 455.39999999999986 315.5999999999999 456.0999999999999 315.69999999999993 C 456.7999999999999 315.69999999999993 457.4999999999999 316.0999999999999 457.5999999999999 316.79999999999995 C 457.69999999999993 316.99999999999994 457.69999999999993 317.09999999999997 457.69999999999993 317.19999999999993 C 457.79999999999995 318.0999999999999 457.0999999999999 318.99999999999994 456.0999999999999 319.0999999999999 C 455.5999999999999 319.19999999999993 455.19999999999993 318.8999999999999 454.69999999999993 318.69999999999993 L 446.79999999999995 314.49999999999994 L 446.49999999999994 311.8999999999999 C 446.3999999999999 311.19999999999993 445.69999999999993 310.7999999999999 444.99999999999994 310.99999999999994 C 439.8999999999999 313.3999999999999 435.99999999999994 316.69999999999993 432.59999999999997 321.29999999999995 C 432.29999999999995 321.69999999999993 431.7 321.79999999999995 431.29999999999995 321.49999999999994 L 425.4 318.29999999999995 C 425.09999999999997 318.09999999999997 424.9 317.79999999999995 424.9 317.49999999999994 L 421.4 287.79999999999995 L 420.79999999999995 287.59999999999997 L 419.29999999999995 288.59999999999997 C 419.9 288.9 420.29999999999995 289.49999999999994 420.19999999999993 290.2 C 420.19999999999993 290.9 419.69999999999993 291.59999999999997 419.0999999999999 291.8 C 417.9999999999999 292.1 416.8999999999999 291.40000000000003 416.69999999999993 290.3 C 416.7 290.3 416.9 289.8 417.2 289.4" stroke-linecap="round" />
</g>
<g transform="matrix(0.7 0 0 0.79 590.41 46.1)"  >
<path style="stroke: none; stroke-width: 1; stroke-dasharray: none; stroke-linecap: butt; stroke-dashoffset: 0; stroke-linejoin: miter; stroke-miterlimit: 4; fill: rgb(39,59,143); fill-rule: nonzero; opacity: 1;" vector-effect="non-scaling-stroke"  transform=" translate(-482.29, -298.85)" d="M 465.5 284.5 L 470.8 280 C 471.1 279.7 471.6 279.6 472 279.5 C 472.3 279.5 472.8 279.7 473.1 279.9 L 476.8 282.7 L 477.2 304.8 C 477.2 305.1 477.5 305.5 477.9 305.6 C 483.09999999999997 306.8 487.9 309.1 491.9 312.6 L 492.59999999999997 312.1 L 491.99999999999994 280.6 C 491.99999999999994 280.1 492.3999999999999 279.5 492.8999999999999 279.5 L 497.8999999999999 279.4 C 498.49999999999994 279.4 498.99999999999994 279.9 498.99999999999994 280.4 L 499.59999999999997 313.2 L 493.09999999999997 318 C 492.7 317.6 487.7 312.8 483.4 310.6 C 481.79999999999995 309.8 480.09999999999997 309.20000000000005 478.4 308.8 C 477.9 308.6 477.29999999999995 309.1 477.29999999999995 309.6 L 477.4 312.5 L 477.5 312.5 L 470.2 317.8 C 469.8 318.1 469.4 318.3 468.8 318.3 C 467.8 318.3 466.90000000000003 317.3 467.1 316.2 C 467.20000000000005 315.5 467.8 315 468.5 314.9 C 469.2 314.7 469.9 315 470.3 315.59999999999997 L 470.5 315.49999999999994 L 469.9 283.79999999999995 L 469.29999999999995 283.49999999999994 L 467.79999999999995 284.29999999999995 C 468.29999999999995 284.59999999999997 468.69999999999993 285.29999999999995 468.49999999999994 285.99999999999994 C 468.3999999999999 286.69999999999993 467.8999999999999 287.29999999999995 467.19999999999993 287.3999999999999 C 466.0999999999999 287.69999999999993 464.99999999999994 286.7999999999999 464.99999999999994 285.7999999999999 C 464.9 285.2 465.2 284.8 465.5 284.5" stroke-linecap="round" />
</g>
<g transform="matrix(0.7 0 0 0.79 619.81 46.58)"  >
<path style="stroke: none; stroke-width: 1; stroke-dasharray: none; stroke-linecap: butt; stroke-dashoffset: 0; stroke-linejoin: miter; stroke-miterlimit: 4; fill: rgb(39,59,143); fill-rule: nonzero; opacity: 1;" vector-effect="non-scaling-stroke"  transform=" translate(-524.2, -299.45)" d="M 511.9 284.6 L 519.6999999999999 279.20000000000005 L 537.3 285.20000000000005 L 535.5 312.70000000000005 C 535.3 315.1 533.7 317.30000000000007 531.4 318.20000000000005 L 527.6 319.70000000000005 L 521.1 313.30000000000007 C 520.7 312.9000000000001 520.5 312.4000000000001 520.6 312.00000000000006 C 520.7 311.00000000000006 521.5 310.20000000000005 522.5 310.40000000000003 C 523.5 310.50000000000006 524.1 311.40000000000003 524 312.20000000000005 C 524 312.80000000000007 523.6 313.30000000000007 523.1 313.6 L 524.1 314.20000000000005 L 526.5 313.30000000000007 C 527.7 312.80000000000007 528.5 311.70000000000005 528.6 310.4000000000001 L 530 289.0000000000001 L 515.2 283.7000000000001 L 513.8000000000001 284.6000000000001 C 514.3000000000001 285.00000000000006 514.6 285.50000000000006 514.6 286.1000000000001 C 514.5 287.00000000000006 513.7 287.7000000000001 512.8000000000001 287.7000000000001 C 511.80000000000007 287.7000000000001 511.00000000000006 286.8000000000001 511.1000000000001 285.8000000000001 C 511.3 285.5 511.5 284.9 511.9 284.6" stroke-linecap="round" />
</g>
<g transform="matrix(0.7 0 0 0.79 649.19 49.47)"  >
<path style="stroke: none; stroke-width: 1; stroke-dasharray: none; stroke-linecap: butt; stroke-dashoffset: 0; stroke-linejoin: miter; stroke-miterlimit: 4; fill: rgb(39,59,143); fill-rule: nonzero; opacity: 1;" vector-effect="non-scaling-stroke"  transform=" translate(-566.04, -303.13)" d="M 552.8 286.2 C 552.9 285.3 553.5999999999999 284.7 554.4 284.3 L 558.3 283 C 559.0999999999999 282.7 560 282.9 560.5 283.6 L 564.5 288.3 C 565.4 289.3 565.5 290.1 565.3 290.90000000000003 C 565.1999999999999 291.70000000000005 564.1999999999999 292.20000000000005 563.4 291.90000000000003 C 563 291.70000000000005 562.6 291.3 562.6 290.70000000000005 C 562.5 290.20000000000005 562.7 289.80000000000007 563 289.50000000000006 C 563.6 288.90000000000003 563.2 288.50000000000006 563.2 288.40000000000003 L 563 288.20000000000005 L 559.4 289.6 L 558.6999999999999 294.20000000000005 C 558.3 296.80000000000007 560.3 298.50000000000006 562.4 298.80000000000007 C 563.1999999999999 298.9000000000001 564 298.9000000000001 564.6 298.6000000000001 L 568.7 296.9000000000001 C 569 296.9000000000001 569.2 296.80000000000007 569.6 296.9000000000001 C 570.5 297.0000000000001 571.2 297.9000000000001 571.1 298.9000000000001 C 571 299.80000000000007 570.1 300.5000000000001 569.1 300.4000000000001 C 568.4 300.30000000000007 567.8000000000001 299.80000000000007 567.6 299.0000000000001 L 566.2 299.7000000000001 C 562.4000000000001 301.1000000000001 558.6 302.8000000000001 558.1 306.3000000000001 L 557 313.40000000000015 C 556.5 316.70000000000016 563 320.20000000000016 563 320.20000000000016 C 563 320.20000000000016 570.3 319.3000000000002 570.9 315.50000000000017 L 575.1999999999999 287.00000000000017 C 575.3 286.50000000000017 575.6999999999999 286.1000000000002 576.1999999999999 286.20000000000016 L 581.4 287.00000000000017 C 581.8 287.1000000000002 582.1999999999999 287.6000000000002 582.1 288.1000000000002 L 577.8000000000001 316.6000000000002 C 577.1 321.50000000000017 562.5000000000001 323.4000000000002 562.5000000000001 323.4000000000002 C 562.5000000000001 323.4000000000002 549.3000000000001 317.4000000000002 550.0000000000001 312.4000000000002 L 551.3000000000001 304.0000000000002 L 559.7 300.4000000000002 C 555.4000000000001 299.0000000000002 551.3000000000001 295.2000000000002 551.9000000000001 291.1000000000002 L 552.8 286.2 z" stroke-linecap="round" />
</g>
<g transform="matrix(0.7 0 0 0.79 675.9 48.19)"  >
<path style="stroke: none; stroke-width: 1; stroke-dasharray: none; stroke-linecap: butt; stroke-dashoffset: 0; stroke-linejoin: miter; stroke-miterlimit: 4; fill: rgb(39,59,143); fill-rule: nonzero; opacity: 1;" vector-effect="non-scaling-stroke"  transform=" translate(-604.1, -301.52)" d="M 595.1 274.4 C 595.3000000000001 273.5 596.4 272.79999999999995 597.3000000000001 273.09999999999997 C 598.2 273.4 598.7 274.29999999999995 598.5000000000001 275.2 C 598.4000000000001 275.8 597.9000000000001 276.2 597.4000000000001 276.5 L 598.0000000000001 277.3 L 611.5000000000001 276.5 C 613.8000000000001 278.5 615.4000000000001 281.8 615.4000000000001 285.1 C 615.4000000000001 285.1 609.7 287.5 608.6000000000001 289.3 L 600.1000000000001 326.5 L 600.4000000000001 326.8 L 602.1000000000001 326.5 C 601.7000000000002 326 601.5000000000001 325.3 601.8000000000002 324.6 C 602.0000000000002 323.90000000000003 602.7000000000002 323.5 603.4000000000002 323.5 C 604.6000000000003 323.5 605.4000000000002 324.6 605.1000000000003 325.7 C 605.0000000000002 326.2 604.6000000000003 326.59999999999997 604.2000000000003 326.8 L 598.0000000000002 329.8 C 597.2000000000003 330.2 596.3000000000002 330 595.7000000000003 329.40000000000003 L 592.8000000000003 325.70000000000005 L 600.3000000000003 292.70000000000005 C 603.9000000000003 287.50000000000006 610.5000000000003 284.00000000000006 610.5000000000003 284.00000000000006 C 610.6000000000004 283.50000000000006 610.3000000000003 282.6000000000001 610.1000000000004 282.30000000000007 L 600.9000000000003 282.80000000000007 L 595.4000000000003 275.9000000000001 C 595.1 275.3 595 274.8 595.1 274.4" stroke-linecap="round" />
</g>
<g transform="matrix(0.7 0 0 0.79 697.21 62.35)"  >
<path style="stroke: none; stroke-width: 1; stroke-dasharray: none; stroke-linecap: butt; stroke-dashoffset: 0; stroke-linejoin: miter; stroke-miterlimit: 4; fill: rgb(39,59,143); fill-rule: nonzero; opacity: 1;" vector-effect="non-scaling-stroke"  transform=" translate(-634.51, -319.56)" d="M 621.3 300.3 L 621.3 300.3 L 627.5999999999999 297.7 C 628.3999999999999 297.3 629.3999999999999 297.59999999999997 629.8999999999999 298.3 L 632.4999999999999 302.2 L 630.8999999999999 307.5 C 635.4999999999999 303.4 642.3999999999999 302.1 648.2999999999998 303.9 L 653.1999999999998 310.29999999999995 L 643.7999999999998 340.79999999999995 C 643.5999999999998 341.4 643.0999999999998 341.79999999999995 642.3999999999999 341.49999999999994 L 637.7999999999998 340.09999999999997 C 637.1999999999998 339.9 636.8999999999999 339.29999999999995 637.0999999999998 338.7 L 646.8999999999997 306.9 L 646.5999999999998 306.4 C 638.5999999999998 304.5 630.5999999999998 308.9 628.0999999999998 316.9 L 627.9999999999998 316.9 L 622.6999999999998 334.29999999999995 C 622.4999999999998 334.9 621.8999999999999 335.19999999999993 621.2999999999998 334.99999999999994 L 616.5999999999998 333.49999999999994 C 615.8999999999997 333.29999999999995 615.6999999999998 332.69999999999993 615.8999999999997 332.09999999999997 L 625.4999999999998 300.79999999999995 L 625.1999999999998 300.4 L 623.4999999999998 300.59999999999997 C 623.8999999999997 301.2 623.9999999999998 301.9 623.6999999999998 302.59999999999997 C 623.2999999999998 303.2 622.6999999999998 303.59999999999997 621.9999999999998 303.49999999999994 C 620.7999999999997 303.3999999999999 620.1999999999998 302.29999999999995 620.4999999999998 301.19999999999993 C 620.5 300.9 620.8 300.5 621.3 300.3" stroke-linecap="round" />
</g>
<g transform="matrix(0.7 0 0 0.79 727.82 73.15)"  >
<path style="stroke: none; stroke-width: 1; stroke-dasharray: none; stroke-linecap: butt; stroke-dashoffset: 0; stroke-linejoin: miter; stroke-miterlimit: 4; fill: rgb(39,59,143); fill-rule: nonzero; opacity: 1;" vector-effect="non-scaling-stroke"  transform=" translate(-678.12, -333.35)" d="M 668.7 314.7 C 669.1 313.8 669.9000000000001 313.4 670.7 313.3 L 674.8000000000001 313 C 675.6 312.9 676.5000000000001 313.3 676.8000000000001 314.1 L 679.6 319.70000000000005 C 680.2 320.90000000000003 680.2 321.70000000000005 679.8000000000001 322.40000000000003 C 679.5000000000001 323.1 678.4000000000001 323.40000000000003 677.7 322.90000000000003 C 677.4000000000001 322.6 677.1 322.1 677.2 321.6 C 677.2 321.1 677.6 320.70000000000005 677.9000000000001 320.6 C 678.6000000000001 320.20000000000005 678.4000000000001 319.70000000000005 678.3000000000001 319.6 L 678.1 319.3 L 674.3000000000001 319.8 L 672.5000000000001 324.1 C 671.5000000000001 326.5 673.0000000000001 328.70000000000005 675.0000000000001 329.5 C 675.7000000000002 329.8 676.5000000000001 329.9 677.2000000000002 329.9 L 681.6000000000001 329.29999999999995 C 681.9000000000001 329.29999999999995 682.1000000000001 329.29999999999995 682.5000000000001 329.49999999999994 C 683.4000000000001 329.8999999999999 683.8000000000001 330.8999999999999 683.4000000000001 331.79999999999995 C 683.0000000000001 332.69999999999993 682.0000000000001 333.09999999999997 681.1000000000001 332.69999999999993 C 680.5000000000001 332.3999999999999 680.0000000000001 331.79999999999995 680.0000000000001 330.99999999999994 L 678.5000000000001 331.29999999999995 C 674.4000000000001 331.79999999999995 670.4000000000001 332.4 669.0000000000001 335.69999999999993 L 666.2000000000002 342.3999999999999 C 664.9000000000002 345.3999999999999 670.4000000000002 350.3999999999999 670.4000000000002 350.3999999999999 C 670.4000000000002 350.3999999999999 677.7000000000002 351.2999999999999 679.2000000000002 347.7999999999999 L 690.3000000000002 321.1999999999999 C 690.5000000000002 320.6999999999999 691.0000000000002 320.4999999999999 691.5000000000002 320.6999999999999 L 696.3000000000002 322.6999999999999 C 696.7000000000002 322.89999999999986 696.9000000000002 323.39999999999986 696.7000000000002 323.89999999999986 L 685.6000000000001 350.4999999999999 C 683.7000000000002 355.0999999999999 669.1000000000001 353.39999999999986 669.1000000000001 353.39999999999986 C 669.1000000000001 353.39999999999986 657.7000000000002 344.39999999999986 659.7000000000002 339.6999999999999 L 663.0000000000001 331.7999999999999 L 672.1000000000001 330.3999999999999 C 668.3000000000002 327.99999999999994 665.2000000000002 323.2999999999999 666.8000000000002 319.49999999999994 L 668.7 314.7 z" stroke-linecap="round" />
</g>
<g transform="matrix(0.57 0 0 0.57 600 333.92)" style=""  >
		<text xml:space="preserve" font-family="'B2SIGNPachautidN'" font-size="125.6111" font-style="normal" font-weight="normal" style="stroke: none; stroke-width: 1; stroke-dasharray: none; stroke-linecap: butt; stroke-dashoffset: 0; stroke-linejoin: miter; stroke-miterlimit: 4; fill: rgb(39,59,143); fill-rule: nonzero; opacity: 1; white-space: pre;" ><tspan x="-277.32" y="39.46" >Muay Thai</tspan></text>
</g>
</svg>